<svg xmlns="http://www.w3.org/2000/svg" width="727.116" height="132.995" viewBox="0 0 727.116 132.995">
  <g id="Group_1" data-name="Group 1" transform="translate(-383.884 -148.933)">
    <g id="Group_2" data-name="Group 2">
      <text id="General_Petroleum_Administration_" data-name="General Petroleum Administration  " transform="translate(574 227)" fill="#b8a57b" font-size="33" font-family="TrajanPro-Bold, Trajan Pro" font-weight="700"><tspan x="0" y="0">General Administration oil</tspan></text>
      <g id="layer1" transform="translate(346.181 31.491)">
        <g id="g1" transform="translate(-192.881 -149.225)">
          <path id="path2" d="M319.136,266.734l.158.053,1.838,5.619,5.934.053-4.831,3.571,1.891,5.672-.158-.053-3.466-2.521-.84-.525q-.074-.389-.63-.315l-4.726,3.466.052-.158,1.786-5.567-4.831-3.571,5.987-.105Z" fill="#b8a57b" stroke="#b8a57b" stroke-width="0.105"/>
          <path id="path3" d="M295.189,271.353l3.886,4.516,5.462-2.206.053.158-1.786,2.836-1,1.628-.263.578,3.781,4.516-.158.053-.525-.21-1.155-.21-3.991-1.05-3.151,5.147-.21-2-.158-2.783-.105-.735q.105-.473-.158-.578l-3.991-.945-1.733-.473,5.567-2.311-.263-3.519Z" fill="#b8a57b" stroke="#b8a57b" stroke-width="0.105"/>
          <path id="path4" d="M343.293,271.353l.053.788q-.231.137-.105.63l-.158,1.838-.158,2.678,3.519,1.523,1.943.893-3.729.893-1.365.315-.42.105-.368.158-.473,5.934-3.151-5.147L333,283.327l.578-.683,2.363-2.783.63-.735q.347-.074.263-.578l-3.046-4.936.263-.053,3.519,1.523,1.1.473.735.21Z" fill="#b8a57b" stroke="#b8a57b" stroke-width="0.105"/>
          <path id="path5" d="M274.917,288.789h8.613l.945.1a3.607,3.607,0,0,1,2.678,1.628l.42.84.21.84.105,1.681v3.886l.053,1.628.158,1,.105.525a1.887,1.887,0,0,0,.315,1.155A15.664,15.664,0,0,0,293.3,309.9a14.956,14.956,0,0,0,4.1,2.731,11.476,11.476,0,0,0,3.046,1.05l.84.21,1.575.21.578.052,2.048.053.525-.105.945-.105.42-.105a2.365,2.365,0,0,0,1.943-.788,2,2,0,0,0,.63-1.365l.63-2.206,1.62-5.932.683-2.678a1.884,1.884,0,0,0-.788-1.313,4.146,4.146,0,0,0-3.256-.63l-1.26.42a3.171,3.171,0,0,0-1.418,1l-.639.649-.359-1.436-.21-.84-.053-1.418a2.816,2.816,0,0,1,1.208-1.943l2.783-1.418,1.1-.578,1.26-.945a13.131,13.131,0,0,1,7.457-1.575l2.311.42a9.017,9.017,0,0,1,4.989,2.783,4.968,4.968,0,0,1,1.26,3.361l.578,4.359,1,7.51.21,2q.242.137.105.63a2.593,2.593,0,0,0,.893,1.523l1.155.525q.5-.126.63.105l3.046.105.525-.105.945-.105a10.484,10.484,0,0,0,3.2-.788,13.64,13.64,0,0,0,3.046-1.47,16.142,16.142,0,0,0,3.676-3.046l1.418-1.838.893-1.523.42-.945a13.1,13.1,0,0,0,1.47-6.722v-4.2l.105-1.155a2.036,2.036,0,0,1,.525-1.47,2.435,2.435,0,0,1,1-1.208,2.958,2.958,0,0,1,1.68-.735l.945-.1h8.613l.525.1,1.208.158a9.215,9.215,0,0,1,4.411,2.1l2.416,2.311,35.816,37.391-8.77.053a8.3,8.3,0,0,1-5.514-3.2L382.049,314l-1,1.418,20.9,26.048-.473.053-.42-.105H399.8l-.42-.1h-.945l-1.05-.105-2.1-.1L394.34,341l-1.575-.21A7.985,7.985,0,0,1,388.3,338l-12.026-17.278-.578.368-.735.735,20.8,30.984-.368.053-.42-.105-1.575-.21-4.359-.578-1.523-.263-1.05-.21-1.26-.525a6.65,6.65,0,0,1-2.678-2.048l-1.575-2.521-2.468-4.359-9.138-15.965-1.523.893L387.668,363.1l-.263.053-1.786-.42-4.726-.945a8.5,8.5,0,0,1-5.934-3.1l-1-1.628-.788-1.838-2.311-4.831-9.4-20.324-1.628.683,13.024,29.3-.578.053-1.523-.368-3.413-.683a8.011,8.011,0,0,1-5.094-2.678,8.727,8.727,0,0,1-1.943-3.624l-1.418-3.939-5.829-16.227-1.155.21-.578.158,8.4,24.472-.473.053-4.1-.84a8.354,8.354,0,0,1-4.779-2.888,7.88,7.88,0,0,1-1.68-3.466l-.84-3.256-3.414-12.761-1.523.473.105.63.42,1.786.893,3.624,3.519,14.337-.158-.052-3.466-.63a8.033,8.033,0,0,1-4.149-2.468,7.869,7.869,0,0,1-1.891-3.676l-.42-2.311-1.05-5.987-.473-2.468-2.206,5.041-.63,1.47-.473,1.523q.242.137.105.63a1.843,1.843,0,0,0,.63,1.155l1.365,2.1,5.2,7.825,2.048,3.1.578.893.263.578.1,1.26.105,1.05q-.126.557.158.683l.315.42,5.409,5.3.052.158,14.232.053-.052,6.144-2.206-2.206-.525-.525a.733.733,0,0,0-.735-.315l-.525.105H358l-.21-.105-.473.053,3.046,3.151-3.466,3.361v-3.151l-.158-.368-.578-.578L353.8,373.97l-.525-.105-.315.105h-1.891l-.21-.105-3.308,3.2-.053,2.678-2.678-2.678-.683-.683q-.473-.21-.1-.42l.525-.525,2-2,.473-.368-5.619-5.724-.525.105-1.681.21a1.843,1.843,0,0,1-1.155-.63l-2.1-1.365-8.928-5.882.053.158,21.531,29.2-6.775.053a8.245,8.245,0,0,1-5.2-2.888,5.988,5.988,0,0,1-1.26-2.206l-1.575-3.256-3.2-6.985a2.5,2.5,0,0,0-1.418.578l7.877,19.956-3.413.053-2-.42a8.61,8.61,0,0,1-3.729-2.573l-1.155-1.891-.525-1.575-.42-2.416-1.838-9.715-1.313.263,1.313,10.556.315,2.521.105.84.053,2.258a8.637,8.637,0,0,1-1.681,3.991l-1.733,1.733-1.891,1.575-.788-.683-.052-.158-2.678-2.468a6.487,6.487,0,0,1-1.155-2.206,3.613,3.613,0,0,1-.473-1.733l-.053-2.258.158-.893.263-2.468.105-.42.105-.84.368-2.888.788-6.459-1.313-.263-1.26,6.617-.578,2.993-.105.84-.315,1.575a7.781,7.781,0,0,1-2.678,4.569,8.238,8.238,0,0,1-3.991,1.891l-.788.053-3.308.053-.053-.158,7.877-19.851a2.5,2.5,0,0,0-1.418-.578l-4.044,8.665-1.05,2.206a6.764,6.764,0,0,1-1.943,2.573l-1.208.788-1,.473a3.146,3.146,0,0,1-1.68.525l-.735.1h-6.3l-.053-.158,21.636-29.2-.158-.053-8.56,5.724-2.153,1.418-.683.473a1.162,1.162,0,0,1-1,.263l-.893-.158-1.1-.053-5.514,5.619,3.151,3.046-3.676,3.571V377.8q.189-.7-.158-.893l-.578-.578-2.363-2.363h-2l-1.05-.105-2.363,2.363-.63.63q-.42.21-.21,1.05l-.052,2.573-2.521-2.521-.63-.63q-.473-.21-.105-.42l.578-.578,2.311-2.311-.053-.158-.525.105-.21-.105h-.21l-.525.105h-1.155l-.21-.105-.368.158-.63.63-2.311,2.206.052-6.144h13.129q1.082.242,1.313-.368l1.1-1.1,4.569-4.569.105-2.1.21-1.155.578-.788,2.153-3.2,5.252-7.982,1.365-2a2.876,2.876,0,0,0,.735-2l-1.05-2.836-2.258-5.094-.525,2.731-.683,3.939-.21,1.47-.525,2.626a7.78,7.78,0,0,1-2.048,3.834l-.263.158-.052.158a8.143,8.143,0,0,1-4.2,2.1l-3.046.63-.053-.263.21-.63.105-.63.735-2.731,2.731-11.133.683-2.783.473-2.258-1.523-.473-1.05,3.781-2.468,9.4-.84,2.941a7.471,7.471,0,0,1-2.783,4.569,8.184,8.184,0,0,1-4.2,1.786l-3.886.735.053-.158,8.3-24.367-.473-.158-1.26-.21-5.882,16.28L278.03,352.8a8.209,8.209,0,0,1-2.678,4.359,8.61,8.61,0,0,1-4.831,2l-3.046.63-1.891.42-.053-.158,12.919-29.3-1.523-.683-9.348,20.166-2.468,5.409-.84,1.68a6.763,6.763,0,0,1-2.048,2.573,7.189,7.189,0,0,1-2.941,1.47l-2.311.525-6.2,1.26-.052-.158,19.851-36.026-1.523-.893-8.98,15.7-2.731,4.831a10.636,10.636,0,0,1-2.468,3.308,7.41,7.41,0,0,1-3.519,1.733l-2.153.368-2.626.315-3.886.525.158-.263,20.586-30.879-.788-.683q-.053-.368-.525-.315L253.24,333.37l-2.1,3.151a10.934,10.934,0,0,1-2.153,2.573l-2.311,1.365-.893.263-1.313.263-1.575.105-6.407.42.053-.158,15.545-19.431,3.939-4.779,1.05-1.365q.315-.053.263-.473l-1-1.313-11.869,14.284-.158.052-.158.263-1.68,1.26-1.943.788-1.05.21-1.733.053H230.7l.788-.893L248.764,311.9l.158-.053,19.693-20.534a10.739,10.739,0,0,1,4.306-2.206l1.47-.21Z" fill="#b8a57b" stroke="#b8a57b" stroke-width="0.105"/>
        </g>
      </g>
    </g>
  </g>
</svg>
